<svg xmlns="http://www.w3.org/2000/svg" preserveAspectRatio="xMinYMin meet" viewBox="0 0 1240 40" width="1240" height="40"><g fill="#ffffff" stroke="#000000" stroke-width="3"><path d="M5 11.667l30-.001M5 20h30M5 28.333h30"/></g><g fill="#ffffff" stroke="#000000" stroke-width="3"><path d="M45.07 11.654l29.86.066"/><path d="M45 20h30" stroke-opacity=".997525"/><path d="M45.004 28.279l29.992.066"/></g><g fill="#ffffff" stroke="#000000" stroke-width="3"><path d="M85.301 11.613l29.398.284"/><path d="M85 20h30" stroke-opacity=".989359"/><path d="M85.018 28.102l29.964.284"/></g><g fill="#ffffff" stroke="#000000" stroke-width="3"><path d="M125.733 11.537l28.534.689"/><path d="M125 20h30" stroke-opacity=".974137"/><path d="M125.043 27.773l29.914.689"/></g><g fill="#ffffff" stroke="#000000" stroke-width="3"><path d="M166.415 11.417l27.17 1.331"/><path d="M165 20h30" stroke-opacity=".950069"/><path d="M165.083 27.251l29.834 1.332"/></g><g fill="#ffffff" stroke="#000000" stroke-width="3"><path d="M207.411 11.241l25.178 2.269"/><path d="M205 20h30" stroke-opacity=".914895"/><path d="M205.142 26.489l29.716 2.27"/></g><g fill="#ffffff" stroke="#000000" stroke-width="3"><path d="M248.795 10.997l22.41 3.571"/><path d="M245 20h30" stroke-opacity=".866053"/><path d="M245.223 25.431l29.554 3.572"/></g><g fill="#ffffff" stroke="#000000" stroke-width="3"><path d="M290.622 10.674l18.755 5.291"/><path d="M285 20h30" stroke-opacity=".801538"/><path d="M285.331 24.033l29.338 5.292"/></g><g fill="#ffffff" stroke="#000000" stroke-width="3"><path d="M332.877 10.276l14.245 7.414"/><path d="M325 20h30" stroke-opacity=".721946"/><path d="M325.464 22.309l29.072 7.414"/></g><g fill="#ffffff" stroke="#000000" stroke-width="3"><path d="M375.405 9.83l9.188 9.793"/><path d="M365 20h30" stroke-opacity=".632704"/><path d="M365.612 20.375l28.776 9.794"/></g><g fill="#ffffff" stroke="#000000" stroke-width="3"><path d="M417.954 9.38l4.091 12.192"/><path d="M405 20h30" stroke-opacity=".542748"/><path d="M405.762 18.426l28.476 12.193"/></g><g fill="#ffffff" stroke="#000000" stroke-width="3"><path d="M460.311 8.964l-.624 14.41"/><path d="M445 20h30" stroke-opacity=".459545"/><path d="M445.901 16.623l28.198 14.412"/></g><g fill="#ffffff" stroke="#000000" stroke-width="3"><path d="M502.383 8.599l-4.768 16.36"/><path d="M485 20h30" stroke-opacity=".386405"/><path d="M486.023 15.039l27.954 16.362"/></g><g fill="#ffffff" stroke="#000000" stroke-width="3"><path d="M544.163 8.285l-8.328 18.035"/><path d="M525 20h30" stroke-opacity=".32358"/><path d="M526.128 13.678l27.744 18.037"/></g><g fill="#ffffff" stroke="#000000" stroke-width="3"><path d="M585.68 8.017L574.318 27.48"/><path d="M565 20h30" stroke-opacity=".270033"/><path d="M566.217 12.518l27.566 19.465"/></g><g fill="#ffffff" stroke="#000000" stroke-width="3"><path d="M626.972 7.789l-13.946 20.679"/><path d="M605 20h30" stroke-opacity=".224439"/><path d="M606.293 11.53l27.414 20.681"/></g><g fill="#ffffff" stroke="#000000" stroke-width="3"><path d="M668.073 7.594L651.924 29.31"/><path d="M645 20h30" stroke-opacity=".185568"/><path d="M646.358 10.688l27.284 21.717"/></g><g fill="#ffffff" stroke="#000000" stroke-width="3"><path d="M709.013 7.429l-18.029 22.6"/><path d="M685 20h30" stroke-opacity=".152382"/><path d="M686.413 9.969l27.174 22.602"/></g><g fill="#ffffff" stroke="#000000" stroke-width="3"><path d="M749.816 7.287l-19.635 23.356"/><path d="M725 20h30" stroke-opacity=".124032"/><path d="M726.46 9.354l27.08 23.359"/></g><g fill="#ffffff" stroke="#000000" stroke-width="3"><path d="M790.502 7.166l-21.007 24.001"/><path d="M765 20h30" stroke-opacity=".099832"/><path d="M766.501 8.83l26.998 24.004"/></g><g fill="#ffffff" stroke="#000000" stroke-width="3"><path d="M831.086 7.063l-22.175 24.551"/><path d="M805 20h30" stroke-opacity=".079224"/><path d="M806.535 8.383l26.93 24.554"/></g><g fill="#ffffff" stroke="#000000" stroke-width="3"><path d="M871.58 6.975l-23.164 25.017"/><path d="M845 20h30" stroke-opacity=".061755"/><path d="M846.564 8.005l26.872 25.019"/></g><g fill="#ffffff" stroke="#000000" stroke-width="3"><path d="M911.997 6.902L888 32.311"/><path d="M885 20h30" stroke-opacity=".047048"/><path d="M886.589 7.686l26.822 25.412"/></g><g fill="#ffffff" stroke="#000000" stroke-width="3"><path d="M952.344 6.841l-24.692 25.735"/><path d="M925 20h30" stroke-opacity=".034795"/><path d="M926.609 7.421l26.782 25.738"/></g><g fill="#ffffff" stroke="#000000" stroke-width="3"><path d="M992.629 6.79l-25.262 26.004"/><path d="M965 20h30" stroke-opacity=".024732"/><path d="M966.626 7.203l26.748 26.006"/></g><g fill="#ffffff" stroke="#000000" stroke-width="3"><path d="M1032.859 6.75l-25.721 26.219"/><path d="M1005 20h30" stroke-opacity=".016641"/><path d="M1006.639 7.028l26.722 26.222"/></g><g fill="#ffffff" stroke="#000000" stroke-width="3"><path d="M1073.037 6.718l-26.078 26.388"/><path d="M1045 20h30" stroke-opacity=".010333"/><path d="M1046.65 6.891l26.7 26.39"/></g><g fill="#ffffff" stroke="#000000" stroke-width="3"><path d="M1113.17 6.695l-26.343 26.513"/><path d="M1085 20h30" stroke-opacity=".005646"/><path d="M1086.658 6.789l26.684 26.516"/></g><g fill="#ffffff" stroke="#000000" stroke-width="3"><path d="M1153.261 6.679l-26.525 26.598"/><path d="M1125 20h30" stroke-opacity=".00244"/><path d="M1126.663 6.72l26.674 26.601"/></g><g fill="#ffffff" stroke="#000000" stroke-width="3"><path d="M1193.313 6.67l-26.63 26.647"/><path d="M1165 20h30" stroke-opacity=".000594"/><path d="M1166.666 6.68l26.668 26.65"/></g><g fill="#ffffff"><path d="M1233.33 6.667l-26.663 26.663" stroke="#000000" stroke-width="3" class="svg-content"/><path d="M1205 20h30"/><path d="M1206.667 6.667l26.666 26.666" stroke="#000000" stroke-width="3"/></g></svg>