<svg xmlns="http://www.w3.org/2000/svg" viewBox="0 0 384 24" width="384" height="24"><g fill="#ffffff" stroke="#000000" stroke-width="2"><path d="M3 7h18M3 12h18M3 17h18"/></g><g fill="#ffffff" stroke="#000000" stroke-width="2"><path d="M27.181 6.968l17.638.17"/><path d="M27 12h18" stroke-opacity=".989359"/><path d="M27.011 16.862l17.978.17"/></g><g fill="#ffffff" stroke="#000000" stroke-width="2"><path d="M51.849 6.85l16.302.799"/><path d="M51 12h18" stroke-opacity=".950069"/><path d="M51.05 16.351l17.9.799"/></g><g fill="#ffffff" stroke="#000000" stroke-width="2"><path d="M77.277 6.598l13.446 2.143"/><path d="M75 12h18" stroke-opacity=".866053"/><path d="M75.134 15.259l17.732 2.143"/></g><g fill="#ffffff" stroke="#000000" stroke-width="2"><path d="M103.727 6.166l8.546 4.449"/><path d="M99 12h18" stroke-opacity=".721946"/><path d="M99.278 13.385l17.444 4.449"/></g><g fill="#ffffff" stroke="#000000" stroke-width="2"><path d="M130.773 5.628l2.454 7.316"/><path d="M123 12h18" stroke-opacity=".542748"/><path d="M123.457 11.056l17.086 7.316"/></g><g fill="#ffffff" stroke="#000000" stroke-width="2"><path d="M157.431 5.159l-2.862 9.818"/><path d="M147 12h18" stroke-opacity=".386405"/><path d="M147.614 9.023l16.772 9.818"/></g><g fill="#ffffff" stroke="#000000" stroke-width="2"><path d="M183.409 4.81l-6.818 11.68"/><path d="M171 12h18" stroke-opacity=".270033"/><path d="M171.73 7.51l16.54 11.68"/></g><g fill="#ffffff" stroke="#000000" stroke-width="2"><path d="M208.845 4.557l-9.69 13.031"/><path d="M195 12h18" stroke-opacity=".185568"/><path d="M195.814 6.412l16.372 13.031"/></g><g fill="#ffffff" stroke="#000000" stroke-width="2"><path d="M233.891 4.372l-11.782 14.016"/><path d="M219 12h18" stroke-opacity=".124032"/><path d="M219.876 5.612l16.248 14.016"/></g><g fill="#ffffff" stroke="#000000" stroke-width="2"><path d="M258.653 4.238L245.347 18.97"/><path d="M243 12h18" stroke-opacity=".079224"/><path d="M243.921 5.03l16.158 14.732"/></g><g fill="#ffffff" stroke="#000000" stroke-width="2"><path d="M283.2 4.141l-14.4 15.247"/><path d="M267 12h18" stroke-opacity=".047048"/><path d="M267.953 4.612l16.094 15.247"/></g><g fill="#ffffff" stroke="#000000" stroke-width="2"><path d="M307.58 4.074l-15.16 15.604"/><path d="M291 12h18" stroke-opacity=".024732"/><path d="M291.975 4.322l16.05 15.604"/></g><g fill="#ffffff" stroke="#000000" stroke-width="2"><path d="M331.824 4.031l-15.648 15.835"/><path d="M315 12h18" stroke-opacity=".010333"/><path d="M315.99 4.134l16.02 15.835"/></g><g fill="#ffffff" stroke="#000000" stroke-width="2"><path d="M355.959 4.007l-15.918 15.961"/><path d="M339 12h18" stroke-opacity=".00244"/><path d="M339.998 4.032l16.004 15.961"/></g><g fill="#ffffff"><path d="M380 4l-16 16" stroke="#000000" stroke-width="2"/><path d="M363 12h18"/><path d="M364 4l16 16" stroke="#000000" stroke-width="2"/></g></svg>